<?xml version="1.0" encoding="UTF-8" standalone="no"?> <svg width="64" height="64" viewBox="0 0 64 64" fill="none" xmlns="http://www.w3.org/2000/svg">
<path d="M60.8599 25.26C60.6897 24.7079 60.3455 24.2256 59.8787 23.885C59.412 23.5444 58.8477 23.3638 58.2699 23.37H40.7099C40.5571 23.3694 40.4082 23.3209 40.2844 23.2312C40.1606 23.1415 40.0681 23.0151 40.0199 22.87L34.5999 6.17004C34.4184 5.62403 34.0695 5.14905 33.6028 4.81244C33.1361 4.47583 32.5753 4.29468 31.9999 4.29468C31.4245 4.29468 30.8637 4.47583 30.3971 4.81244C29.9304 5.14905 29.5815 5.62403 29.3999 6.17004L23.9999 22.87C23.9518 23.0151 23.8593 23.1415 23.7355 23.2312C23.6117 23.3209 23.4628 23.3694 23.3099 23.37H5.72994C5.15345 23.3706 4.59195 23.5537 4.12589 23.893C3.65983 24.2323 3.31315 24.7104 3.13551 25.2589C2.95788 25.8073 2.95842 26.3979 3.13706 26.946C3.3157 27.4941 3.66326 27.9716 4.12994 28.31L18.3299 38.62C18.4545 38.7116 18.5468 38.8403 18.5936 38.9877C18.6403 39.135 18.639 39.2934 18.5899 39.44L13.1699 56.13C12.9895 56.6787 12.9878 57.2704 13.1649 57.8201C13.342 58.3699 13.6889 58.8492 14.1557 59.1893C14.6225 59.5294 15.1852 59.7127 15.7627 59.7129C16.3403 59.713 16.903 59.5299 17.3699 59.19L31.5699 48.87C31.6942 48.7775 31.845 48.7275 31.9999 48.7275C32.1549 48.7275 32.3057 48.7775 32.4299 48.87L46.6299 59.19C47.0946 59.5335 47.6571 59.7189 48.2349 59.7189C48.8127 59.7189 49.3753 59.5335 49.8399 59.19C50.3118 58.8539 50.6636 58.3753 50.8435 57.8246C51.0235 57.2739 51.0223 56.68 50.8399 56.13L45.4099 39.44C45.3609 39.2934 45.3596 39.135 45.4063 38.9877C45.4531 38.8403 45.5454 38.7116 45.6699 38.62L59.8699 28.31C60.343 27.9774 60.6953 27.5002 60.8738 26.9502C61.0523 26.4002 61.0475 25.8071 60.8599 25.26V25.26Z" fill="#F8B64C"/>
<path d="M31.9999 4.29011C31.4229 4.28581 30.8595 4.46584 30.3918 4.80399C29.9242 5.14214 29.5767 5.62074 29.3999 6.17011L23.9999 22.8701C23.9518 23.0152 23.8593 23.1415 23.7355 23.2312C23.6117 23.3209 23.4628 23.3695 23.3099 23.3701H5.72994C5.15345 23.3707 4.59195 23.5538 4.12589 23.8931C3.65983 24.2324 3.31315 24.7105 3.13551 25.2589C2.95788 25.8074 2.95842 26.398 3.13706 26.9461C3.3157 27.4942 3.66326 27.9717 4.12994 28.3101L18.3299 38.6201C18.4545 38.7117 18.5468 38.8404 18.5936 38.9877C18.6403 39.1351 18.639 39.2935 18.5899 39.4401L13.1699 56.1301C12.9895 56.6788 12.9878 57.2705 13.1649 57.8202C13.342 58.3699 13.6889 58.8493 14.1557 59.1894C14.6225 59.5295 15.1852 59.7128 15.7627 59.7129C16.3403 59.7131 16.903 59.53 17.3699 59.1901L31.5699 48.8701C31.6935 48.7765 31.8449 48.7272 31.9999 48.7301V4.29011Z" fill="#FFE17D"/>
</svg>
